# xmcd
#
# Track frame offsets: 
#        150
#        12297
#        24153
#        37283
#        50852
#        64257
#        78150
#        91039
#        104542
#        115254
#        128000
#        140632
#        153531
#        165463
#        178279
#        192132
#        205371
#        216968
#        227638
#        241826
#
# Disc length: 3392 seconds
#
# Revision: 0
# Processed by: cddbd v1.5.1PL0 Copyright (c) Steve Scherf et al.
# Submitted via: ExactAudioCopy v0.90b3
#
DISCID=170d3e14
DTITLE=Bukka White - Fixin' to Die
DYEAR=2004
DGENRE=Blues
TTITLE0=District Attorney Blues
TTITLE1=Bukka's Jitterbug Swing
TTITLE2=Special Streamline
TTITLE3=Shake 'em on Down
TTITLE4=Where Can I Change My Clothes?
TTITLE5=Promise True and Grand
TTITLE6=Po' Boy
TTITLE7=The New Frisco Train
TTITLE8=Sic 'em Dogs On
TTITLE9=High Fever Blues
TTITLE10=Pinebluff, Arkansas
TTITLE11=Strange Place Blues
TTITLE12=Patchman Farm Blues
TTITLE13=Sleepy Man Blues
TTITLE14=I Am in the Heavenly Way
TTITLE15=Black Train Blues
TTITLE16=Aberdeen, Mississippi Blues
TTITLE17=Good Gin Blues
TTITLE18=The Panama Limited
TTITLE19=Fixin' to Die
EXTD=
EXTT0=
EXTT1=
EXTT2=
EXTT3=
EXTT4=
EXTT5=
EXTT6=
EXTT7=
EXTT8=
EXTT9=
EXTT10=
EXTT11=
EXTT12=
EXTT13=
EXTT14=
EXTT15=
EXTT16=
EXTT17=
EXTT18=
EXTT19=
PLAYORDER=
